<svg id="delivery" xmlns="http://www.w3.org/2000/svg" width="463" height="319" viewBox="0 0 463 319">
  <g id="Group_2" data-name="Group 2">
    <g id="Group_1" data-name="Group 1">
      <path id="Path_1" data-name="Path 1" d="M407.5,280a55.219,55.219,0,0,0-17.879,2.972l-7.645-15.291a72.361,72.361,0,0,1,54.5,1.34,7.5,7.5,0,0,0,6-13.748,87.3,87.3,0,0,0-67.236-1.058l-27.785-55.57A23.514,23.514,0,0,0,351.5,199h16a7.5,7.5,0,0,0,7.5-7.5v-32a7.5,7.5,0,0,0-7.5-7.5h-16a23.52,23.52,0,0,0-20.939,12.852L322.63,148.99A23.371,23.371,0,0,0,301.611,136H287.5a7.5,7.5,0,0,0,0,15h14.111a8.455,8.455,0,0,1,7.6,4.7l19.424,38.847-3.647,1.824A23.371,23.371,0,0,0,312,217.389V296H247.5A24.528,24.528,0,0,1,223,271.5V239h.5a23.5,23.5,0,0,0,0-47h-64a23.421,23.421,0,0,0-16.5,6.787V87.5A15.517,15.517,0,0,0,127.5,72H15.5A15.517,15.517,0,0,0,0,87.5v112A15.517,15.517,0,0,0,15.5,215H32.334a19.514,19.514,0,0,0,19.045,24H91.7a100.245,100.245,0,0,0-13.03,9.914c-16.617,14.933-25.5,32.727-28.266,44.4a20.815,20.815,0,0,0,3.933,17.836,20.528,20.528,0,0,0,16.189,7.821h.041l3.952-.007A55.495,55.495,0,1,0,182.479,343H327.5a7.5,7.5,0,0,0,7.5-7.5,72.185,72.185,0,0,1,33.568-61.1l7.643,15.286A55.466,55.466,0,1,0,407.5,280Zm-248-73h64a8.5,8.5,0,0,1,0,17h-64a8.5,8.5,0,0,1,0-17ZM15,87.5a.5.5,0,0,1,.5-.5h112a.5.5,0,0,1,.5.5V104H15ZM15.5,200a.5.5,0,0,1-.5-.5V119H128v80.5a.5.5,0,0,1-.5.5Zm35.879,24a4.588,4.588,0,0,1-4.567-4.5,4.538,4.538,0,0,1,3.506-4.5l85.7.024c0,.159-.012.316-.012.476a23.377,23.377,0,0,0,1.6,8.5ZM70.54,303.972h-.012a5.557,5.557,0,0,1-4.431-2.135,5.9,5.9,0,0,1-1.1-5.06C70.528,273.477,99.3,239,143.5,239c34.313,0,47.1,32.793,47.1,53.464,0,5.606-3.1,11.288-9.011,11.3ZM136,335.5a8.5,8.5,0,1,1-8.5-8.5A8.51,8.51,0,0,1,136,335.5ZM127.5,376a40.476,40.476,0,0,1-36.944-57.066l20.33-.038a23.5,23.5,0,1,0,33.163-.063l20.332-.039A40.477,40.477,0,0,1,127.5,376Zm194.251-57.993A87.582,87.582,0,0,0,320.318,328H182.488a55.591,55.591,0,0,0-2.073-9.235l1.2,0c13.673-.025,23.984-11.331,23.984-26.3a76.113,76.113,0,0,0-14.819-45.119A62.681,62.681,0,0,0,183.208,239H208v32.5A39.545,39.545,0,0,0,247.5,311h72a7.456,7.456,0,0,0,4.436-1.462A86.476,86.476,0,0,0,321.751,318.007ZM351.5,167H360v17h-8.5a8.5,8.5,0,0,1,0-17ZM327,301.213V217.388a8.454,8.454,0,0,1,4.7-7.6l3.647-1.824,26.49,52.979A87.848,87.848,0,0,0,327,301.213ZM407.5,376A40.5,40.5,0,1,1,448,335.5,40.546,40.546,0,0,1,407.5,376Z" transform="translate(0 -72)"/>
      <path id="Path_2" data-name="Path 2" d="M407.5,312A23.5,23.5,0,1,0,431,335.5,23.527,23.527,0,0,0,407.5,312Zm0,32a8.5,8.5,0,1,1,8.5-8.5A8.51,8.51,0,0,1,407.5,344Z" transform="translate(0 -72)"/>
    </g>
  </g>
</svg>
