<svg xmlns="http://www.w3.org/2000/svg" width="122.871" height="117.853"
    viewBox="0 0 122.871 117.853">
    <g id="empty-box" transform="translate(0 0.003)">
        <path d="M60.05,68.41,18.02,46.33,6.2,60.47Q28.565,72.29,50.94,84.12l9.11-15.71ZM63.3,23.47,21.12,44.39,62.24,66l41.2-21.65L79.81,31.99,63.3,23.47ZM15.89,43.95.39,29.27a1.583,1.583,0,0,1,.15-2.23,2.025,2.025,0,0,1,.3-.21L47.95.18a1.575,1.575,0,0,1,2.1.61L63.28,19.01,72.1,2.49a1.575,1.575,0,0,1,2.13-.66l47.8,25.27a1.8,1.8,0,0,1,.39.29,1.578,1.578,0,0,1-.02,2.23L108.24,43.53l13.71,16.41a1.572,1.572,0,0,1-.2,2.22,2.2,2.2,0,0,1-.32.21l-12.31,6.51v24.4a1.574,1.574,0,0,1-.98,1.46L63.63,117.33a1.577,1.577,0,0,1-2.58-.35L16.46,94.68a1.58,1.58,0,0,1-.87-1.41V69L3.05,62.37a2.2,2.2,0,0,1-.32-.21,1.573,1.573,0,0,1-.2-2.22L15.89,43.95ZM60.84,21.06,48.11,3.67,4.07,28.7,18.46,42.1,60.84,21.06Zm4.91.02L80.5,28.8l25.08,12.93,13.07-12.84L74.15,5.35l-8.4,15.73Zm40.72,25.25L64.44,68.41l9.11,15.7,44.74-23.65L106.47,46.33Z"
            fill="#000000" />
    </g>
</svg>
